<svg height="64" viewBox="0 0 16.933 16.933" width="64" xmlns="http://www.w3.org/2000/svg" xmlns:xlink="http://www.w3.org/1999/xlink"><linearGradient id="a" gradientUnits="userSpaceOnUse" x1="3.2409032" x2="12.59124096" y1="294.72291184" y2="285.59090144"><stop offset="0" stop-color="#4e8ed5"/><stop offset="1" stop-color="#1bce89"/></linearGradient><linearGradient id="b" gradientUnits="userSpaceOnUse" x1="12.74599504" x2="3.13275264" y1="285.49718784" y2="294.89108976"><stop offset="0" stop-color="#f3eb24"/><stop offset="1" stop-color="#f3a324"/></linearGradient><linearGradient id="c" gradientUnits="userSpaceOnUse" x1=".963" x2="16.012" y1="4.433" y2="12.696"><stop offset="0" stop-color="#0072ff"/><stop offset="1" stop-color="#43e97b"/></linearGradient><path d="m13.911 13.911a7.7 7.7 0 0 1 -12.54-8.441m1.65-2.447a7.7 7.7 0 0 1 12.54 8.442" fill="none" stroke="url(#c)" stroke-linecap="round" stroke-width="1.454"/><path d="m8.353 284.49c-1.23 0-2.231.74-2.22 1.586.013.497.188.457 2.534.467.257-.01.263.24 0 .224h-3.225c-.877 0-1.585.99-1.585 2.219v.634c0 1.228.707 2.219 1.586 2.219h5.762v-5.763c0-.878-.99-1.585-2.219-1.585zm-.703.623a.46.46 0 1 1 0 .922.46.46 0 0 1 0-.922z" fill="url(#a)" transform="matrix(1.10976 0 0 1.10976 -1.155 -312.59)"/><path d="m11.205 286.762v1.268c0 .702-.566 1.267-1.268 1.267h-2.535s-1.268 0-1.268 1.27v1.958c0 .878.99 1.585 2.219 1.585h.633c1.23 0 2.22-.704 2.22-1.585 0-.528-.112-.416-2.642-.411-.232-.002-.237-.275.001-.28h3.332c.877 0 1.585-.99 1.585-2.22v-.634c0-1.228-.707-2.218-1.586-2.218zm-1.6 5.739a.476.476 0 1 1 0 .951.476.476 0 0 1 0-.951z" fill="url(#b)" transform="matrix(1.10976 0 0 1.10976 -1.155 -312.59)"/></svg>