<svg height="65.937" width="50.109" xmlns="http://www.w3.org/2000/svg"><path d="m375.03112 499.3939c-13.55041 0-24.53541 3.5345-24.9608 7.94492h-.0625v49.35859c-.0216.13993-.0625.29626-.0625.43791 0 .0885.0541.16255.0625.25023.42539 4.41042 11.41039 7.94492 24.9608 7.94492 13.55042 0 24.53542-3.5345 24.96082-7.94492h.12512v-50.04673h-.0625c-.4254-4.41042-11.41041-7.94492-24.96082-7.94492zm.3128 3.81606c10.50445 0 19.01776 2.30722 19.01776 5.12979 0 2.82258-8.51331 5.12979-19.01776 5.12979s-19.01776-2.30721-19.01776-5.12979c0-2.82257 8.51331-5.12979 19.01776-5.12979zm-17.14101 26.08686h6.88143c1.56003.00002 2.74474.0779 3.56583.25024 1.14949.23792 2.12826.69028 2.94024 1.31372 1.05827.80396 1.85263 1.81434 2.37722 3.06537.52457 1.25104.81324 2.70865.81326 4.31653-.00002 1.37-.20723 2.57014-.56303 3.62839-.35581 1.05824-.81978 1.93426-1.37628 2.62745-.55652.69321-1.15278 1.22865-1.81419 1.62652-.66144.39787-1.44211.73328-2.37722.93837-.93514.2051-2.03969.3128-3.25304.3128h-7.19422zm20.14381 0h7.50701c1.53267.00002 2.76494.19799 3.69095.56303.92598.36508 1.66495.93027 2.18954 1.68908.52457.75885.75068 1.54868.7507 2.37722-.00002.77114-.22289 1.50867-.68814 2.18954-.46529.6809-1.18733 1.20815-2.12699 1.62652 1.21336.31994 2.16282.8554 2.81513 1.62652.65229.77114 1.00092 1.70253 1.00094 2.75257-.00002.84497-.22876 1.65122-.62559 2.37722-.39687.72602-.85498 1.29531-1.43884 1.68908-.58389.39376-1.30918.67483-2.18954.87581-.88039.20099-1.97581.3128-3.25304.3128h-7.63213zm-17.51636 2.12699v13.82541h4.25398c1.32283 0 2.37525-.15394 3.12792-.37535.75264-.22149 1.36715-.5364 1.81419-.93838.62949-.56602 1.15015-1.29639 1.5014-2.2521.35123-.95569.50045-2.14148.50047-3.50327-.00002-1.8868-.37471-3.30339-1.06349-4.31653-.68881-1.01313-1.51706-1.71987-2.50234-2.06443-.7116-.24609-1.86242-.37533-3.44071-.37535zm20.14381 0v5.44258h4.31653c1.17688.00002 2.054-.0482 2.5649-.18757.67509-.18037 1.15928-.45743 1.5014-.87582.3421-.41837.50045-.93227.50047-1.56396-.00002-.59884-.11871-1.17121-.43791-1.62652-.31932-.45529-.78329-.77018-1.37628-.93838-.59302-.16815-1.62392-.25021-3.06537-.25023h-4.00374zm0 7.56957v6.25584h5.00468c.85756 0 1.46751-.0677 1.81419-.12512.61123-.0985 1.09086-.27077 1.5014-.50046.41053-.2297.73635-.56205 1.00094-1.00094.26455-.43889.43789-.92714.43791-1.5014-.00002-.67269-.17997-1.25531-.56303-1.75164-.38318-.4963-.94686-.8625-1.62652-1.06349-.67967-.20097-1.66301-.31279-2.94024-.31279z" fill="#00bcf2" transform="translate(-349.945 -499.394)"/></svg>